<?xml version="1.0" encoding="utf-8"?>
<!-- Generator: Adobe Illustrator 21.1.0, SVG Export Plug-In . SVG Version: 6.00 Build 0)  -->
<svg version="1.0" xmlns="http://www.w3.org/2000/svg" xmlns:xlink="http://www.w3.org/1999/xlink" x="0px" y="0px"
	 viewBox="0 0 1000 2500" style="enable-background:new 0 0 1000 2500;" xml:space="preserve">
<style type="text/css">
	.st0{fill:none;stroke:#1981F2;stroke-width:3;stroke-miterlimit:10;}
	.st1{fill:none;stroke:#EF1B71;stroke-width:3;stroke-miterlimit:10;}
</style>
<g id="Layer_1">
	
		<image style="overflow:visible;" width="4000" height="3976" xlink:href="831920F6CC2861F2.jpg"  transform="matrix(0.6291 0 0 0.6291 -247 -1)">
	</image>
</g>
<g id="Layer_2">
	<path class="st0" d="M811.4,165.8c0,32.6,0,65.1,0,97.7c0,38.9,13.4,63.3-32.4,65.1c-14.4,0.6-37.9-4.9-51.3-0.1
		c-18,6.5-13.9,18.2-13.9,37.3c0,33.7,3.5,64.6,7,96.5c5.3,49.1-9.2,99.4-12,147.3c-36,1.8-72.7,0.4-109,0.4
		c-40.6,0-42.3,6.5-44.2,46.5c-2.8,59-20,117.7-26.1,176.2c-3.4,32.9-8.8,68.3-15.7,101.8c-1.7,8.1-9.6,29.9-4.4,38.3
		c14,22.7,81.6,10.8,104.4,11.6c25.7,0.9,68.5-8.5,92.3,1.8c18.3,7.9,10.8,16.7,9.9,36.6c-1.5,31.1-1.5,58.4-4.7,89.5
		c-4.1,40.5-3,83.2-7,123.3c-3.4,34-8.5,72.2,9.6,102.2c-9.1,12.4-25.9,9.8-39.8,9.4c-42.1-1.1-84.1-5.3-126.2-4.7
		c-17.4,0.2-33.8,1.1-48.7,6.4c-15.1,5.4-19.1,13.3-36.7,5.5c3.3,0.4,5.9,1.5,9.1,2.5c1.3,18.9-9.1,41.7-13.2,60.3
		c-7.7,34.7-13.7,69.1-20.3,104c-7.8,40.6-9.1,81.3-14.7,121.9c-3.4,25.1-9.2,52.7-7.8,78c-34.2,2.2-69.3-5.2-103.3-8.9
		c-39.1-4.3-76-2.5-115-2.3c-45.6,0.2-89.2,7-134.6,9.7c3.5,20,21.1,42.3,31.8,59.9c7.9,13.1,13.9,23.3,28.4,29.9
		c10.9,4.9,24.2,1.3,33.6,8.6c11.2,8.7,11.9,27,21.5,37.2c6,6.4,16,7.9,22.9,13.7c21.4,18,13.5,26.5-5.2,40.7
		c-18.7-13.7-36.2-28.7-55.3-41.7c-25.8-17.7-39.3-42.5-58.9-66.8c-17.7-22.1-42.1-53-67.9-65.5"/>
</g>
<g id="Layer_3">
	<path class="st1" d="M613.7,198.4c-31.2,68.5,35,33.6,78,46.5c22.2,6.7,19.7,15.1,19.7,39.5c0,20.2,0,40.3,0,60.5
		c0,15.1-6.1,45.8,0.2,59.3c10.5,22.5,55.8,15.7,77.6,17.5c29.7,2.3,33.9,4.6,33.9,34.9c0,23-1,46.2,0.1,67.8
		c0.8,16.3,8.1,76.6-1.5,85.6c-7.4,6.9-50.1,0.1-59.8,0.1c-15.3,0-31.2-1.5-45.5,2.7c-6.6,19.2,0.6,41.6-0.4,62.4
		c-1.2,25-1,51.2-2.3,76.8c-1.9,36.8-19.6,31.9-54.6,30.3c-23.5-1.1-50.3-5.9-73.4-1c-0.3-3.8-2.6-6-2.6-10.4
		c-44.1-2.2-41.7,4.5-47.3,43.8c-4.3,30.2-9.9,64.2-17.4,95.5c-14.2,58.8-19.1,109.2-18.6,170.8c0.2,26.2-0.9,70.6-25.6,77.9
		c-29.8,8.8-67-4.3-97.6,2.3c-19.8,4.3-18.8,1.4-20.9,23.3c-1.7,17.4,2.1,34.8,2.3,52.3c0.4,34.8,0.5,71.8-4.7,105.8
		c-9.7,64,1.4,136.6-2.8,206.3c-1.6-0.8-2.8-2-3.4-3.6c-0.2-0.1,5.5-1.2,3.7,1.4c-21.3,0-17.7,11.4-25.3,23.8
		c-6.1,9.9-20.4,22.4-18.3,34.5c17.7,6,10.5,31.2,8.4,45.7c-2.7,18.8,4.9,45-2.2,61.3c-45.4,2.8-93.3-1.5-139.3-2
		c-37.7-0.4-79.2-7-110.5,16.3c17,15.3,12.1,45.1,29.2,57.7c11.8,8.6,31.3,2.2,42.1,11.9c2.1,1.9-0.6,12.6,2.6,16
		c5.1,5.2,15.7,5.7,19.3,9.5c8.4,9,1.9,11,8.1,22.4c6.4,11.6,9.5,6.5,18.5,16.2c14.1,15.3,14.7,31.8,13.7,52
		c-46.7,1.5-80.8-66.9-107.1-97.9c-22.3-26.4-44.4-56.6-73.9-69.1"/>
</g>
</svg>
