<?xml version="1.0" encoding="utf-8"?>
<!-- Generator: Adobe Illustrator 24.0.3, SVG Export Plug-In . SVG Version: 6.00 Build 0)  -->
<svg version="1.1" id="Layer_1" xmlns="http://www.w3.org/2000/svg" xmlns:xlink="http://www.w3.org/1999/xlink" x="0px" y="0px"
	 viewBox="0 0 1920 1080" style="enable-background:new 0 0 1920 1080;" xml:space="preserve">
<style type="text/css">
	.st0{fill:none;}
	.st1{fill:none;stroke:#F40B0B;stroke-width:3;stroke-miterlimit:10;}
</style>
<image style="overflow:visible;" width="1300" height="780" xlink:href="map.jpg"  transform="matrix(1.3831 0 0 1.3831 60 0)">
</image>
<path class="st0" d="M2041.9,371.9c-68.2,0.3-130.9-33.7-194.3-58.9c-86.8-34.6-179.8-53.7-273.2-56.1
	c-45.6-1.2-92.1,1.7-134.7,17.9c-42.6,16.2-81.2,47.2-98.3,89.5c-2.1,5.1-3.8,10.9-1.8,16.1c1.4,3.7,4.5,6.4,7.7,8.8
	c33.4,25.3,84.9,22.6,115.5-6c30.6-28.6,36.9-79.8,14-114.8c-25.2-38.6-76.3-52.2-122.3-49.7c-62.4,3.3-123.3,31.2-166.6,76.3
	c-37.8,39.3-61.6,89.6-89.8,136.3c-51.9,85.6-120.6,160.9-201.2,220.2c-45.5,33.5-98,62.9-154.4,61.8c-103.3-2-174.7-99.8-262.1-155
	C413.7,516,334.8,498,257.2,484.3c-119.2-21-241-33.6-361.3-20.9"/>
<path class="st1" d="M1650.6,401.5c-0.7,2.9-1.4,5.8-1.2,8.8c0.2,3,1.3,6,3.5,7.9c1.9,1.6,4.5,2.3,7,2.3c5.6,0,10.9-3,15.3-6.5
	c1.9-1.5,3.7-3.2,4.3-5.5c0.4-1.5,0-3.2-0.4-4.7c-0.5-1.6-1.1-3.2-2.4-4.4c-2.2-2.1-5.6-2-8.6-2.6
	C1660.3,395.1,1653.3,391,1650.6,401.5z"/>
</svg>
